<svg width="14" height="14" viewBox="0 0 14 14" fill="none" xmlns="http://www.w3.org/2000/svg">
<path d="M8.91699 0.900391V0.90625C9.36398 0.932113 9.74153 1.12573 10.1016 1.40039L10.3906 1.63867C10.6698 1.88338 10.974 2.18894 11.3213 2.53613L11.3232 2.53516L11.3779 2.59082L11.3936 2.60645L11.4648 2.67676L11.4629 2.67773C11.9342 3.14912 12.3279 3.54227 12.5996 3.89844L12.7061 4.04492C12.9242 4.36134 13.0724 4.69618 13.0947 5.08301H13.0996V5.2832H13.0947C13.0724 5.67034 12.9244 6.00564 12.7061 6.32227L12.5996 6.46777C12.328 6.82377 11.9349 7.21738 11.4639 7.68848L11.4648 7.68945L7.68945 11.4648L7.68848 11.4639C7.34104 11.8113 7.03621 12.1165 6.75684 12.3613L6.46777 12.5996C6.10775 12.8743 5.73024 13.0689 5.2832 13.0947V13.0996H5.08301V13.0938C4.6962 13.0714 4.36132 12.9242 4.04492 12.7061L3.89844 12.5996C3.54227 12.3279 3.14912 11.9342 2.67773 11.4629L2.67676 11.4648L2.60645 11.3936L2.53516 11.3232L2.53613 11.3213C2.18894 10.974 1.88338 10.6698 1.63867 10.3906L1.40039 10.1016C1.12572 9.74151 0.931123 9.36401 0.905273 8.91699H0.900391V8.7168H0.905273C0.931048 8.26976 1.12571 7.89226 1.40039 7.53223L1.63867 7.24316C1.88348 6.96381 2.18775 6.65801 2.53516 6.31055L6.31055 2.53516C6.78169 2.0641 7.17623 1.67201 7.53223 1.40039L7.67773 1.29395C7.99436 1.07555 8.32967 0.927594 8.7168 0.905273V0.900391H8.91699ZM3.40039 7.03418C3.00663 7.42794 2.70961 7.72577 2.48926 7.97656L2.29297 8.21289C2.12907 8.42771 2.05899 8.57705 2.03418 8.7002L2.02344 8.81641L2.03418 8.93262C2.05886 9.05583 2.129 9.20495 2.29297 9.41992L2.48926 9.65723C2.56268 9.74078 2.64418 9.82996 2.73535 9.92578L3.40039 10.5996L4.07422 11.2646C4.266 11.4471 4.4302 11.5927 4.58008 11.707L4.77441 11.8408C4.95001 11.9476 5.07319 11.9766 5.18359 11.9766C5.33069 11.9765 5.50062 11.9256 5.78711 11.707L6.02344 11.5107C6.27422 11.2904 6.57206 10.9934 6.96582 10.5996L7.2959 10.2695L3.73047 6.7041L3.40039 7.03418ZM8.81641 2.02344C8.70613 2.0235 8.58351 2.05256 8.4082 2.15918L8.21289 2.29297C8.06307 2.40729 7.89971 2.55295 7.70801 2.73535L7.03418 3.40039L4.52441 5.91016L8.08984 9.47559L10.6309 6.93457C11.1387 6.42666 11.4829 6.08083 11.707 5.78711L11.8408 5.5918C11.9121 5.47456 11.9494 5.38108 11.9658 5.29883L11.9766 5.18359L11.9658 5.06738C11.9493 4.98514 11.9121 4.89162 11.8408 4.77441L11.707 4.58008C11.5927 4.4302 11.4471 4.266 11.2646 4.07422L10.5996 3.40039L9.92578 2.73535C9.82996 2.64418 9.74078 2.56268 9.65723 2.48926L9.41992 2.29297C9.13344 2.07447 8.96353 2.02344 8.81641 2.02344Z" fill="#000000" stroke="#000000" stroke-width="0.2"/>
<path d="M5.15384 12.5385H12.5385" stroke="#000000" stroke-width="1.5" stroke-linecap="round"/>
</svg>
