<svg width="14" height="14" viewBox="0 0 14 14" fill="none" xmlns="http://www.w3.org/2000/svg">
<path d="M3 6.4C3 4.70294 3 3.85442 3.58579 3.32721C4.17157 2.8 5.11438 2.8 7 2.8H9C10.8856 2.8 11.8284 2.8 12.4142 3.32721C13 3.85442 13 4.70294 13 6.4V9.4C13 11.097 13 11.9456 12.4142 12.4728C11.8284 13 10.8856 13 9 13H7C5.11438 13 4.17157 13 3.58579 12.4728C3 11.9456 3 11.097 3 9.4V6.4Z" stroke="white" stroke-width="1.5"/>
<path d="M3 11.2C1.89543 11.2 1 10.3941 1 9.4V5.8C1 3.53726 1 2.40589 1.78105 1.70294C2.5621 1 3.81917 1 6.33333 1H9C10.1046 1 11 1.80589 11 2.8" stroke="white" stroke-width="1.5"/>
</svg>
