<svg width="13" height="13" viewBox="0 0 13 13" fill="none" xmlns="http://www.w3.org/2000/svg">
<path d="M4.39941 0.879883C5.68519 0.399304 7.09418 0.374623 8.3916 0.805664L8.64941 0.898438C9.93109 1.39034 11.0032 2.30566 11.6895 3.48828L11.8213 3.72852C12.4555 4.9462 12.6524 6.342 12.3828 7.68262L12.3223 7.94922C11.9905 9.28143 11.2131 10.4576 10.123 11.2832L9.90039 11.4434C8.76936 12.2213 7.40826 12.5861 6.04492 12.4824L5.77246 12.4561C4.40971 12.2895 3.14786 11.6608 2.19531 10.6797L2.00879 10.4785C1.21195 9.579 0.707655 8.46584 0.551758 7.28613L0.525391 7.0498C0.524882 7.04427 0.525781 7.04162 0.526367 7.04004C0.527246 7.03774 0.528883 7.03277 0.53418 7.02734C0.540012 7.02139 0.548513 7.01595 0.558594 7.01172L0.59375 7.00488C0.616835 7.00486 0.643566 7.01379 0.669922 7.03906C0.683748 7.05241 0.695766 7.06905 0.705078 7.08789L0.723633 7.15039C0.848612 8.26057 1.29126 9.31478 2.00293 10.1836L2.14941 10.3545C3.03143 11.35 4.22597 12.011 5.53223 12.2314L5.79492 12.2695C7.11507 12.4309 8.44776 12.1348 9.57227 11.4346L9.79492 11.2891C10.8907 10.5352 11.692 9.42973 12.0703 8.16016L12.1406 7.9043C12.462 6.61354 12.3303 5.25446 11.7725 4.05273L11.6553 3.81543V3.81445L11.5273 3.58203C10.9067 2.51271 9.96103 1.669 8.82812 1.17383L8.58301 1.07324C7.3414 0.596707 5.97648 0.561163 4.71582 0.967773L4.46484 1.05469C3.33887 1.47557 2.37617 2.23341 1.70312 3.2168L1.69336 3.22949L1.0293 4.0459H3.5459C3.5959 4.04614 3.63672 4.08666 3.63672 4.13672C3.63653 4.18662 3.59578 4.2273 3.5459 4.22754H1.18164C1.0536 4.22751 0.935351 4.18935 0.833008 4.12793L1.59082 3.0498C2.23996 2.12614 3.13943 1.40163 4.1875 0.963867L4.39941 0.879883ZM0.59082 1.09082C0.640965 1.09082 0.681545 1.13152 0.681641 1.18164V4.00586C0.569879 3.88451 0.500114 3.72386 0.5 3.5459V1.18164C0.500095 1.13155 0.540716 1.09087 0.59082 1.09082Z" fill="white" stroke="white"/>
<path d="M6.49989 2.86365C6.55007 2.86365 6.59067 2.9043 6.59071 2.95447V6.71814L6.84071 6.86267L9.28603 8.2738C9.31868 8.29275 9.33452 8.32937 9.32997 8.36462L9.31923 8.3988C9.30033 8.43147 9.26367 8.44826 9.22841 8.44373L9.19423 8.43201L6.46474 6.85583C6.44863 6.84654 6.43723 6.83363 6.42958 6.81873L6.41786 6.79626L6.41298 6.78845C6.4125 6.78651 6.41162 6.78398 6.41103 6.78064L6.40907 6.76599V2.95447C6.40912 2.90432 6.44975 2.86369 6.49989 2.86365Z" fill="white" stroke="white"/>
</svg>
