<svg width="15" height="9" viewBox="0 0 15 9" fill="none" xmlns="http://www.w3.org/2000/svg">
<path d="M4.49476 1.39176C4.76196 1.10295 4.78902 0.601262 4.55523 0.271196C4.32144 -0.0588707 3.9153 -0.0923083 3.64811 0.196496L4.49476 1.39176ZM0.21954 3.9024C-0.0476573 4.19114 -0.0747258 4.69292 0.159068 5.02295C0.392862 5.35299 0.798993 5.38645 1.06619 5.0976L0.21954 3.9024ZM0.642865 3.70589C0.287828 3.70589 8.37621e-06 4.06144 8.37621e-06 4.5C8.37621e-06 4.93857 0.287828 5.29412 0.642865 5.29412V3.70589ZM14.3571 5.29412C14.7122 5.29412 15 4.93857 15 4.5C15 4.06144 14.7122 3.70589 14.3571 3.70589V5.29412ZM1.06619 3.9024C0.798993 3.61356 0.392862 3.64701 0.159068 3.97705C-0.0747258 4.30708 -0.0476573 4.80886 0.21954 5.0976L1.06619 3.9024ZM3.64811 8.80347C3.9153 9.09232 4.32144 9.05886 4.55523 8.72883C4.78902 8.39879 4.76196 7.89702 4.49476 7.60828L3.64811 8.80347ZM14.7805 5.0976C15.0477 4.80886 15.0747 4.30708 14.8409 3.97705C14.6072 3.64701 14.201 3.61356 13.9338 3.9024L14.7805 5.0976ZM10.5052 7.60828C10.2381 7.89702 10.211 8.39879 10.4448 8.72883C10.6785 9.05886 11.0847 9.09232 11.3519 8.80347L10.5052 7.60828ZM13.9338 5.0976C14.201 5.38645 14.6072 5.35299 14.8409 5.02295C15.0747 4.69292 15.0477 4.19114 14.7805 3.9024L13.9338 5.0976ZM11.3519 0.196496C11.0847 -0.0923083 10.6785 -0.0588707 10.4448 0.271196C10.211 0.601262 10.2381 1.10295 10.5052 1.39176L11.3519 0.196496ZM3.64811 0.196496L0.21954 3.9024L1.06619 5.0976L4.49476 1.39176L3.64811 0.196496ZM0.642865 5.29412H14.3571V3.70589H0.642865V5.29412ZM0.21954 5.0976L3.64811 8.80347L4.49476 7.60828L1.06619 3.9024L0.21954 5.0976ZM13.9338 3.9024L10.5052 7.60828L11.3519 8.80347L14.7805 5.0976L13.9338 3.9024ZM14.7805 3.9024L11.3519 0.196496L10.5052 1.39176L13.9338 5.0976L14.7805 3.9024Z" fill="white"/>
</svg>
